<svg xmlns="http://www.w3.org/2000/svg">

  <symbol viewBox="0 0 10 10" id="bag">

    <path
      d="M9.86203 2.5217C9.79266 2.43991 9.69329 2.39316 9.58915 2.39316H7.65761V3.4188C7.65761 3.89008 7.25347 4.2735 6.75671 4.2735C6.25996 4.2735 5.85581 3.89008 5.85581 3.4188V2.39316H4.05401V3.4188C4.05401 3.89008 3.64987 4.2735 3.15311 4.2735C2.65635 4.2735 2.25221 3.89008 2.25221 3.4188V2.39316H0.320768C0.216534 2.39316 0.117164 2.43991 0.0477949 2.5217C-0.0216646 2.6035 -0.0545475 2.71256 -0.0426556 2.82145L0.605543 8.78461C0.617615 9.45692 1.14167 9.99999 1.78419 9.99999H8.12572C8.76815 9.99999 9.29221 9.45692 9.30437 8.78452L9.95257 2.82136C9.96437 2.71256 9.93149 2.6035 9.86203 2.5217Z"
    />
    <path
      d="M3.15309 3.76068C3.35182 3.76068 3.51345 3.60735 3.51345 3.4188V1.53846C3.51345 1.01051 4.07462 0.683761 4.59453 0.683761H5.49543C6.04264 0.683761 6.39633 1.01923 6.39633 1.53846V3.4188C6.39633 3.60735 6.55804 3.76068 6.75669 3.76068C6.95534 3.76068 7.11705 3.60735 7.11705 3.4188V1.53846C7.11705 0.647009 6.43507 0 5.49543 0H4.59453C3.60101 0 2.79272 0.690171 2.79272 1.53846V3.4188C2.79272 3.60735 2.95435 3.76068 3.15309 3.76068Z"
    />

  </symbol>
  <symbol viewBox="0 0 163 35" id="logo">

    <path fill-rule="evenodd" clip-rule="evenodd"
          d="M-0.151001 0.701999V34.302H13.381C15.5624 34.3553 17.7309 33.954 19.7487 33.1235C21.7665 32.2929 23.5892 31.0514 25.101 29.478C26.6506 27.9007 27.8665 26.0273 28.6761 23.9697C29.4857 21.912 29.8724 19.7124 29.813 17.502C29.8724 15.2916 29.4857 13.092 28.6761 11.0343C27.8665 8.9767 26.6506 7.1033 25.101 5.526C23.5891 3.9527 21.7663 2.71131 19.7486 1.8808C17.7308 1.05029 15.5623 0.64884 13.381 0.701999H-0.151001ZM7.582 26.91V8.091H13.382C14.5845 8.0431 15.7838 8.24676 16.903 8.68896C18.0223 9.13116 19.0369 9.80215 19.882 10.659C20.7304 11.5766 21.3875 12.6541 21.8149 13.8285C22.2422 15.0029 22.4313 16.2507 22.371 17.499C22.4313 18.7473 22.2423 19.9951 21.8149 21.1695C21.3876 22.3439 20.7305 23.4214 19.882 24.339C19.0371 25.196 18.0225 25.8672 16.9032 26.3094C15.7839 26.7516 14.5845 26.9552 13.382 26.907H7.582V26.91ZM42.382 20.958H54.464V13.658H42.378V8.091H55.669V0.701999H34.645V34.302H55.91V26.91H42.378V20.958H42.382ZM78.725 34.302L89.744 0.701999H81.286L73.795 25.422L66.304 0.701999H57.847L68.866 34.302H78.725ZM93.125 34.302H100.858V0.701999H93.125V34.302ZM131.74 32.886C134.233 31.574 136.321 29.6076 137.781 27.198L131.111 23.358C130.381 24.659 129.279 25.7121 127.946 26.382C126.505 27.1262 124.903 27.504 123.282 27.482C121.962 27.5449 120.643 27.3343 119.408 26.8635C118.173 26.3927 117.048 25.6718 116.105 24.746C115.195 23.7792 114.489 22.6393 114.028 21.3942C113.568 20.1492 113.362 18.8242 113.423 17.498C113.362 16.1718 113.568 14.8468 114.028 13.6018C114.489 12.3567 115.195 11.2168 116.105 10.25C117.048 9.32423 118.173 8.60333 119.408 8.13252C120.643 7.66171 121.962 7.45114 123.282 7.514C124.893 7.49099 126.486 7.86172 127.921 8.594C129.263 9.27181 130.373 10.3326 131.111 11.642L137.781 7.802C136.294 5.39746 134.191 3.43379 131.691 2.114C129.109 0.720904 126.216 0.00268919 123.282 0.0259991C113.503 -0.246001 105.485 7.717 105.691 17.498C105.483 27.279 113.5 35.245 123.279 34.974C126.229 35.0012 129.138 34.283 131.737 32.886H131.74ZM149.621 20.958H161.703V13.658H149.618V8.091H162.908V0.701999H141.885V34.302H163.15V26.91H149.618V20.958H149.621Z"
    />


  </symbol>
  <symbol viewBox="0 0 13 13" id="search">

    <path
      d="M5.66666 11C6.84998 10.9998 7.9992 10.6036 8.93133 9.87467L11.862 12.8053L12.8047 11.8627L9.874 8.932C10.6033 7.99978 10.9997 6.85029 11 5.66667C11 2.726 8.60733 0.333336 5.66666 0.333336C2.726 0.333336 0.333328 2.726 0.333328 5.66667C0.333328 8.60734 2.726 11 5.66666 11ZM5.66666 1.66667C7.87266 1.66667 9.66666 3.46067 9.66666 5.66667C9.66666 7.87267 7.87266 9.66667 5.66666 9.66667C3.46066 9.66667 1.66666 7.87267 1.66666 5.66667C1.66666 3.46067 3.46066 1.66667 5.66666 1.66667Z"
      fill="black"/>

  </symbol>
  <symbol viewBox="0 0 9 10" id="user">

    <path
      d="M4.50002 0.333328C5.6971 0.333328 6.66669 1.3775 6.66669 2.66666C6.66669 3.95583 5.6971 5 4.50002 5C3.30294 5 2.33335 3.95583 2.33335 2.66666C2.33335 1.3775 3.30294 0.333328 4.50002 0.333328ZM4.50002 9.66666C4.50002 9.66666 8.83335 9.66666 8.83335 8.5C8.83335 7.1 6.72085 5.58333 4.50002 5.58333C2.27919 5.58333 0.166687 7.1 0.166687 8.5C0.166687 9.66666 4.50002 9.66666 4.50002 9.66666Z"
    />
  </symbol>

  <symbol viewBox="0 0 10 10" id="compare">
    <path
      d="M0.916687 3.36666H2.66669V9.08333H0.916687V3.36666ZM4.18335 0.916664H5.81669V9.08333H4.18335V0.916664ZM7.45002 5.58333H9.08335V9.08333H7.45002V5.58333Z"
    />
  </symbol>
  <symbol viewBox="0 0 16 16" id="plus">
    <path d="M15.7 6.9V9.1H9.10005V15.7H6.90005V9.1H0.300049V6.9H6.90005V0.300003H9.10005V6.9H15.7Z" fill="black"
          fill-opacity="0.3"/>

  </symbol>
  <symbol viewBox="0 0 97 55" id="virt">
    <path
      d="M84.1311 32.639V20.003C84.1311 18.694 85.1761 17.633 86.4661 17.633L94.7921 19.2141V11.02C94.7921 8.66505 93.0841 7.58905 90.5901 6.75505L67.4031 0.175049C69.0191 1.56605 69.2921 2.21505 69.2921 4.57105V49.78C69.2921 52.136 68.8421 53.8461 67.3251 54.9901L90.5901 47.925C92.9911 47.092 94.7921 43.709 94.7921 41.3531V33.44L86.4661 35.007C85.1761 35.009 84.1311 33.947 84.1311 32.639Z"
      fill="#363636"/>
    <path
      d="M95.129 20.979L87.531 19.535C86.523 19.535 85.707 20.364 85.707 21.386V31.254C85.707 32.277 86.523 33.106 87.531 33.106L95.129 31.675C96.283 31.256 96.953 30.846 96.953 29.823V22.83C96.953 21.808 96.187 21.323 95.129 20.979Z"
      fill="#363636"/>
    <path
      d="M67.17 4.48303C67.17 -0.596972 62.938 0.0240287 62.938 0.0240287C62.938 0.0240287 5.83205 4.73803 2.83805 5.14503C-0.155951 5.55203 0.00104837 9.53203 0.00104837 9.53203C0.00104837 9.53203 4.83679e-05 42.069 4.83679e-05 45.812C4.83679e-05 49.555 2.59905 49.565 2.59905 49.565L19.076 50.968L27.212 39.3C27.212 39.3 28.321 37.472 29.717 37.472C31.114 37.472 32.149 39.333 32.149 39.333L41.21 52.854C41.21 52.854 60.105 54.763 63.731 54.763C67.357 54.762 67.17 49.739 67.17 49.739C67.17 49.739 67.17 9.56303 67.17 4.48303ZM12.982 37.192C9.28405 37.192 6.28605 32.591 6.28605 26.917C6.28605 21.243 9.28405 16.642 12.982 16.642C16.68 16.642 19.678 21.243 19.678 26.917C19.678 32.591 16.68 37.192 12.982 37.192ZM49.14 38.618C44.4781 38.618 40.6991 33.379 40.6991 26.917C40.6991 20.454 44.479 15.215 49.14 15.215C53.802 15.215 57.5821 20.454 57.5821 26.917C57.5821 33.379 53.802 38.618 49.14 38.618Z"
      fill="#363636"/>

  </symbol>
  <symbol viewBox="0 0 86 117" id="monopod">
    <path
      d="M82.821 4.01099H3.32997C1.56897 4.01099 0.141968 5.43799 0.141968 7.19899V53.612C0.141968 55.375 1.56897 56.801 3.32997 56.801H82.822C84.584 56.801 86.011 55.374 86.011 53.612V7.19899C86.011 5.43799 84.583 4.01099 82.821 4.01099ZM8.39197 37.236H8.16597C6.40397 37.236 4.97697 35.807 4.97697 34.047V26.764C4.97697 25.003 6.40397 23.576 8.16597 23.576H8.39197V37.236ZM69.623 52.408H13.341V8.40199H69.623V52.408ZM78.4 34.552C76.111 34.552 74.254 32.697 74.254 30.405C74.254 28.113 76.11 26.258 78.4 26.258C80.691 26.258 82.548 28.113 82.548 30.405C82.548 32.697 80.691 34.552 78.4 34.552Z"
      fill="#363636"/>
    <path d="M54.6539 0H31.4969V2.758H54.6539V0Z" fill="#363636"/>
    <path
      d="M46.6079 64.861V61.888H54.6539V59.13H31.4979V61.888H39.5429V97.134C37.4039 98.072 35.9079 100.206 35.9079 102.693V117H50.2429V102.693C50.2429 100.207 48.7479 98.072 46.6069 97.136V69.146H51.4029L56.4539 70.359V63.648L51.4029 64.861H46.6079Z"
      fill="#363636"/>

  </symbol>
  <symbol viewBox="0 0 71 87" id="camera">
    <path
      d="M53.3491 1.49C53.3491 0.754 52.7711 0 52.0381 0H9.05312C8.32012 0 7.67212 0.754 7.67212 1.49V5.012H53.3481V1.49H53.3491Z"
      fill="#363636"/>
    <path
      d="M54.202 81.809H44.605V71.426H37.647V73.933H18.774C18.237 72.679 17.017 71.785 15.593 71.785H3.559C1.642 71.784 0 73.387 0 75.311V78.329C0 80.253 1.642 81.809 3.559 81.809H15.594C17.105 81.809 18.386 80.913 18.863 79.483H37.648V81.809H28.13C27.597 81.809 27.12 82.246 27.12 82.781V85.953C27.12 86.488 27.598 87.001 28.13 87.001H54.202C54.735 87.001 55.132 86.488 55.132 85.953V82.78C55.132 82.245 54.735 81.809 54.202 81.809Z"
      fill="#363636"/>
    <path
      d="M60.666 12.39C59.805 9.45303 57.099 7.34003 53.895 7.34003H7.148C3.25 7.34003 0 10.449 0 14.361V61.261C0 65.173 3.25 68.382 7.148 68.382H53.895C57.793 68.382 61.021 65.173 61.021 61.261V50.915C67.087 46.711 71.022 39.704 71.022 31.751C71.021 23.672 66.89 16.57 60.666 12.39ZM12.238 62.151C8.979 62.151 6.337 59.501 6.337 56.23C6.337 52.96 8.979 50.308 12.238 50.308C15.497 50.308 18.14 52.96 18.14 56.23C18.14 59.501 15.497 62.151 12.238 62.151ZM18.199 29.546C18.199 30.332 17.564 30.968 16.781 30.968H7.841C7.058 30.968 6.423 30.331 6.423 29.546V15.386C6.423 14.6 7.058 13.963 7.841 13.963H16.78C17.563 13.963 18.198 14.6 18.198 15.386V29.546H18.199ZM47.762 51.858C36.686 51.858 27.705 42.848 27.705 31.735C27.705 20.622 36.685 11.611 47.762 11.611C58.839 11.611 67.82 20.621 67.82 31.735C67.82 42.849 58.839 51.858 47.762 51.858Z"
      fill="#363636"/>
    <path
      d="M47.762 43.964C54.4932 43.964 59.95 38.4889 59.95 31.735C59.95 24.9811 54.4932 19.506 47.762 19.506C41.0307 19.506 35.574 24.9811 35.574 31.735C35.574 38.4889 41.0307 43.964 47.762 43.964Z"
      fill="#363636"/>
    <path
      d="M31.562 33.171C32.3545 33.171 32.997 32.5286 32.997 31.736C32.997 30.9435 32.3545 30.301 31.562 30.301C30.7694 30.301 30.127 30.9435 30.127 31.736C30.127 32.5286 30.7694 33.171 31.562 33.171Z"
      fill="#363636"/>
    <path
      d="M63.9631 33.171C64.7556 33.171 65.3981 32.5286 65.3981 31.736C65.3981 30.9435 64.7556 30.301 63.9631 30.301C63.1705 30.301 62.5281 30.9435 62.5281 31.736C62.5281 32.5286 63.1705 33.171 63.9631 33.171Z"
      fill="#363636"/>
    <path
      d="M39.1091 19.429C39.9016 19.429 40.5441 18.7865 40.5441 17.994C40.5441 17.2015 39.9016 16.559 39.1091 16.559C38.3165 16.559 37.6741 17.2015 37.6741 17.994C37.6741 18.7865 38.3165 19.429 39.1091 19.429Z"
      fill="#363636"/>
    <path
      d="M56.4151 46.912C57.2049 46.912 57.8451 46.2691 57.8451 45.476C57.8451 44.6829 57.2049 44.04 56.4151 44.04C55.6253 44.04 54.9851 44.6829 54.9851 45.476C54.9851 46.2691 55.6253 46.912 56.4151 46.912Z"
      fill="#363636"/>
    <path
      d="M55.697 19C56.4895 19 57.132 18.3575 57.132 17.565C57.132 16.7725 56.4895 16.13 55.697 16.13C54.9044 16.13 54.262 16.7725 54.262 17.565C54.262 18.3575 54.9044 19 55.697 19Z"
      fill="#363636"/>
    <path
      d="M39.8281 47.341C40.6206 47.341 41.2631 46.6985 41.2631 45.906C41.2631 45.1135 40.6206 44.471 39.8281 44.471C39.0355 44.471 38.3931 45.1135 38.3931 45.906C38.3931 46.6985 39.0355 47.341 39.8281 47.341Z"
      fill="#363636"/>

  </symbol>

  <symbol viewBox="0 0 107 65" id="fitness">

    <path
      d="M98.967 4.07397C99.719 5.51497 100.176 7.15398 100.176 8.89197V29.994C100.176 34.61 97.084 38.521 92.93 39.894C91.605 43.881 89.152 47.748 84.879 50.326C76.203 55.557 53.755 55.163 53.681 55.163C53.603 55.163 31.168 55.558 22.492 50.326C18.276 47.781 15.784 43.979 14.45 40.047C10.032 38.838 6.694 34.796 6.694 29.994V8.89297C6.694 7.20497 7.121 5.61097 7.833 4.19997C4.17 5.10897 0 6.91797 0 10.434C0 16.677 0 36.121 0 40.417C0 50.668 11.839 64.85 53.657 64.85C95.477 64.85 107.314 50.668 107.314 40.417C107.314 36.121 107.314 16.677 107.314 10.434C107.313 6.74997 102.738 4.93997 98.967 4.07397Z"
      fill="#363636"/>
    <path
      d="M20.5611 38.459H86.0841C91.6481 38.459 96.1581 33.946 96.1581 28.382V9.93499C96.1581 4.37199 91.6481 -0.140015 86.0841 -0.140015H20.5611C14.9971 -0.140015 10.4861 4.37099 10.4861 9.93499V28.382C10.4861 33.946 14.9971 38.459 20.5611 38.459ZM83.6951 9.46799C84.5621 9.46799 85.2641 10.171 85.2641 11.038C85.2641 11.904 84.5621 12.607 83.6951 12.607C82.8281 12.607 82.1271 11.904 82.1271 11.038C82.1271 10.17 82.8281 9.46799 83.6951 9.46799ZM83.6951 13.507C84.5621 13.507 85.2641 14.21 85.2641 15.075C85.2641 15.942 84.5621 16.644 83.6951 16.644C82.8281 16.644 82.1271 15.942 82.1271 15.075C82.1271 14.21 82.8281 13.507 83.6951 13.507ZM83.6951 17.546C84.5621 17.546 85.2641 18.248 85.2641 19.115C85.2641 19.981 84.5621 20.684 83.6951 20.684C82.8281 20.684 82.1271 19.981 82.1271 19.115C82.1271 18.248 82.8281 17.546 83.6951 17.546ZM83.6951 21.373C84.5621 21.373 85.2641 22.077 85.2641 22.942C85.2641 23.809 84.5621 24.51 83.6951 24.51C82.8281 24.51 82.1271 23.809 82.1271 22.942C82.1271 22.076 82.8281 21.373 83.6951 21.373ZM83.6951 25.412C84.5621 25.412 85.2641 26.114 85.2641 26.981C85.2641 27.846 84.5621 28.549 83.6951 28.549C82.8281 28.549 82.1271 27.845 82.1271 26.981C82.1271 26.114 82.8281 25.412 83.6951 25.412ZM79.6561 9.46799C80.5231 9.46799 81.2241 10.171 81.2241 11.038C81.2241 11.904 80.5231 12.607 79.6561 12.607C78.7911 12.607 78.0881 11.904 78.0881 11.038C78.0881 10.17 78.7911 9.46799 79.6561 9.46799ZM79.6561 25.412C80.5231 25.412 81.2241 26.114 81.2241 26.981C81.2241 27.846 80.5231 28.549 79.6561 28.549C78.7911 28.549 78.0881 27.845 78.0881 26.981C78.0881 26.114 78.7911 25.412 79.6561 25.412ZM75.6191 9.46799C76.4841 9.46799 77.1871 10.171 77.1871 11.038C77.1871 11.904 76.4841 12.607 75.6191 12.607C74.7521 12.607 74.0501 11.904 74.0501 11.038C74.0501 10.17 74.7521 9.46799 75.6191 9.46799ZM75.6191 13.507C76.4841 13.507 77.1871 14.21 77.1871 15.075C77.1871 15.942 76.4841 16.644 75.6191 16.644C74.7521 16.644 74.0501 15.942 74.0501 15.075C74.0501 14.21 74.7521 13.507 75.6191 13.507ZM75.6191 17.546C76.4841 17.546 77.1871 18.248 77.1871 19.115C77.1871 19.981 76.4841 20.684 75.6191 20.684C74.7521 20.684 74.0501 19.981 74.0501 19.115C74.0501 18.248 74.7521 17.546 75.6191 17.546ZM75.6191 21.373C76.4841 21.373 77.1871 22.077 77.1871 22.942C77.1871 23.809 76.4841 24.51 75.6191 24.51C74.7521 24.51 74.0501 23.809 74.0501 22.942C74.0501 22.076 74.7521 21.373 75.6191 21.373ZM75.6191 25.412C76.4841 25.412 77.1871 26.114 77.1871 26.981C77.1871 27.846 76.4841 28.549 75.6191 28.549C74.7521 28.549 74.0501 27.845 74.0501 26.981C74.0501 26.114 74.7521 25.412 75.6191 25.412ZM67.9651 9.46799C68.8321 9.46799 69.5331 10.171 69.5331 11.038C69.5331 11.904 68.8321 12.607 67.9651 12.607C67.0981 12.607 66.3971 11.904 66.3971 11.038C66.3961 10.17 67.1001 9.46799 67.9651 9.46799ZM67.9651 17.546C68.8321 17.546 69.5331 18.248 69.5331 19.115C69.5331 19.981 68.8321 20.684 67.9651 20.684C67.0981 20.684 66.3971 19.981 66.3971 19.115C66.3961 18.248 67.1001 17.546 67.9651 17.546ZM67.9651 21.427C68.8321 21.427 69.5331 22.128 69.5331 22.995C69.5331 23.86 68.8321 24.564 67.9651 24.564C67.0981 24.564 66.3971 23.86 66.3971 22.995C66.3961 22.128 67.1001 21.427 67.9651 21.427ZM67.9651 25.412C68.8321 25.412 69.5331 26.114 69.5331 26.981C69.5331 27.846 68.8321 28.549 67.9651 28.549C67.0981 28.549 66.3971 27.845 66.3971 26.981C66.3961 26.114 67.1001 25.412 67.9651 25.412ZM63.9261 9.46799C64.7931 9.46799 65.4961 10.171 65.4961 11.038C65.4961 11.904 64.7931 12.607 63.9261 12.607C63.0611 12.607 62.3571 11.904 62.3571 11.038C62.3561 10.17 63.0611 9.46799 63.9261 9.46799ZM63.9261 17.546C64.7931 17.546 65.4961 18.248 65.4961 19.115C65.4961 19.981 64.7931 20.684 63.9261 20.684C63.0611 20.684 62.3571 19.981 62.3571 19.115C62.3561 18.248 63.0611 17.546 63.9261 17.546ZM63.9261 25.412C64.7931 25.412 65.4961 26.114 65.4961 26.981C65.4961 27.846 64.7931 28.549 63.9261 28.549C63.0611 28.549 62.3571 27.845 62.3571 26.981C62.3561 26.114 63.0611 25.412 63.9261 25.412ZM59.8881 9.46799C60.7531 9.46799 61.4571 10.171 61.4571 11.038C61.4571 11.904 60.7531 12.607 59.8881 12.607C59.0211 12.607 58.3201 11.904 58.3201 11.038C58.3191 10.17 59.0211 9.46799 59.8881 9.46799ZM59.8881 13.507C60.7531 13.507 61.4571 14.21 61.4571 15.075C61.4571 15.942 60.7531 16.644 59.8881 16.644C59.0211 16.644 58.3201 15.942 58.3201 15.075C58.3191 14.21 59.0211 13.507 59.8881 13.507ZM59.8881 17.546C60.7531 17.546 61.4571 18.248 61.4571 19.115C61.4571 19.981 60.7531 20.684 59.8881 20.684C59.0211 20.684 58.3201 19.981 58.3201 19.115C58.3191 18.248 59.0211 17.546 59.8881 17.546ZM59.8881 25.412C60.7531 25.412 61.4571 26.114 61.4571 26.981C61.4571 27.846 60.7531 28.549 59.8881 28.549C59.0211 28.549 58.3201 27.845 58.3201 26.981C58.3191 26.114 59.0211 25.412 59.8881 25.412ZM51.5981 9.46799C52.4651 9.46799 53.1671 10.171 53.1671 11.038C53.1671 11.904 52.4651 12.607 51.5981 12.607C50.7311 12.607 50.0301 11.904 50.0301 11.038C50.0291 10.17 50.7311 9.46799 51.5981 9.46799ZM51.5981 13.507C52.4651 13.507 53.1671 14.21 53.1671 15.075C53.1671 15.942 52.4651 16.644 51.5981 16.644C50.7311 16.644 50.0301 15.942 50.0301 15.075C50.0291 14.21 50.7311 13.507 51.5981 13.507ZM51.5981 17.546C52.4651 17.546 53.1671 18.248 53.1671 19.115C53.1671 19.981 52.4651 20.684 51.5981 20.684C50.7311 20.684 50.0301 19.981 50.0301 19.115C50.0291 18.248 50.7311 17.546 51.5981 17.546ZM51.5981 21.427C52.4651 21.427 53.1671 22.128 53.1671 22.995C53.1671 23.86 52.4651 24.564 51.5981 24.564C50.7311 24.564 50.0301 23.86 50.0301 22.995C50.0291 22.128 50.7311 21.427 51.5981 21.427ZM51.5981 25.412C52.4651 25.412 53.1671 26.114 53.1671 26.981C53.1671 27.846 52.4651 28.549 51.5981 28.549C50.7311 28.549 50.0301 27.845 50.0301 26.981C50.0291 26.114 50.7311 25.412 51.5981 25.412ZM47.5591 13.507C48.4261 13.507 49.1271 14.21 49.1271 15.075C49.1271 15.942 48.4261 16.644 47.5591 16.644C46.6921 16.644 45.9901 15.942 45.9901 15.075C45.9901 14.21 46.6911 13.507 47.5591 13.507ZM39.0571 13.295C39.9221 13.295 40.6261 13.998 40.6261 14.863C40.6261 15.73 39.9221 16.432 39.0571 16.432C38.1901 16.432 37.4861 15.729 37.4861 14.863C37.4861 13.998 38.1891 13.295 39.0571 13.295ZM39.0571 17.333C39.9221 17.333 40.6261 18.036 40.6261 18.903C40.6261 19.769 39.9221 20.473 39.0571 20.473C38.1901 20.473 37.4861 19.769 37.4861 18.903C37.4861 18.036 38.1891 17.333 39.0571 17.333ZM35.0181 9.25499C35.8831 9.25499 36.5861 9.95799 36.5861 10.825C36.5861 11.691 35.8821 12.393 35.0181 12.393C34.1511 12.393 33.4491 11.69 33.4491 10.825C33.4491 9.95799 34.1501 9.25499 35.0181 9.25499ZM35.0181 13.295C35.8831 13.295 36.5861 13.998 36.5861 14.863C36.5861 15.73 35.8821 16.432 35.0181 16.432C34.1511 16.432 33.4491 15.729 33.4491 14.863C33.4491 13.998 34.1501 13.295 35.0181 13.295ZM35.0181 17.333C35.8831 17.333 36.5861 18.036 36.5861 18.903C36.5861 19.769 35.8821 20.473 35.0181 20.473C34.1511 20.473 33.4491 19.769 33.4491 18.903C33.4491 18.036 34.1501 17.333 35.0181 17.333ZM35.0181 21.373C35.8831 21.373 36.5861 22.077 36.5861 22.942C36.5861 23.809 35.8821 24.51 35.0181 24.51C34.1511 24.51 33.4491 23.809 33.4491 22.942C33.4491 22.076 34.1501 21.373 35.0181 21.373ZM30.7641 13.295C31.6311 13.295 32.3331 13.998 32.3331 14.863C32.3331 15.73 31.6311 16.432 30.7641 16.432C29.8971 16.432 29.1961 15.729 29.1961 14.863C29.1961 13.998 29.8971 13.295 30.7641 13.295ZM30.7641 17.333C31.6311 17.333 32.3331 18.036 32.3331 18.903C32.3331 19.769 31.6311 20.473 30.7641 20.473C29.8971 20.473 29.1961 19.769 29.1961 18.903C29.1961 18.036 29.8971 17.333 30.7641 17.333ZM30.7641 21.373C31.6311 21.373 32.3331 22.077 32.3331 22.942C32.3331 23.809 31.6311 24.51 30.7641 24.51C29.8971 24.51 29.1961 23.809 29.1961 22.942C29.1961 22.076 29.8971 21.373 30.7641 21.373ZM30.7641 25.412C31.6311 25.412 32.3331 26.114 32.3331 26.981C32.3331 27.846 31.6311 28.549 30.7641 28.549C29.8971 28.549 29.1961 27.845 29.1961 26.981C29.1961 26.114 29.8971 25.412 30.7641 25.412ZM26.3001 9.25499C27.1671 9.25499 27.8711 9.95799 27.8711 10.825C27.8711 11.691 27.1671 12.393 26.3001 12.393C25.4351 12.393 24.7311 11.69 24.7311 10.825C24.7311 9.95799 25.4351 9.25499 26.3001 9.25499ZM26.3001 13.295C27.1671 13.295 27.8711 13.998 27.8711 14.863C27.8711 15.73 27.1671 16.432 26.3001 16.432C25.4351 16.432 24.7311 15.729 24.7311 14.863C24.7311 13.998 25.4351 13.295 26.3001 13.295ZM26.3001 17.333C27.1671 17.333 27.8711 18.036 27.8711 18.903C27.8711 19.769 27.1671 20.473 26.3001 20.473C25.4351 20.473 24.7311 19.769 24.7311 18.903C24.7311 18.036 25.4351 17.333 26.3001 17.333ZM26.3001 21.373C27.1671 21.373 27.8711 22.077 27.8711 22.942C27.8711 23.809 27.1671 24.51 26.3001 24.51C25.4351 24.51 24.7311 23.809 24.7311 22.942C24.7311 22.076 25.4351 21.373 26.3001 21.373ZM22.2631 13.295C23.1281 13.295 23.8321 13.998 23.8321 14.863C23.8321 15.73 23.1281 16.432 22.2631 16.432C21.3961 16.432 20.6941 15.729 20.6941 14.863C20.6941 13.998 21.3961 13.295 22.2631 13.295ZM22.2631 17.333C23.1281 17.333 23.8321 18.036 23.8321 18.903C23.8321 19.769 23.1281 20.473 22.2631 20.473C21.3961 20.473 20.6941 19.769 20.6941 18.903C20.6941 18.036 21.3961 17.333 22.2631 17.333Z"
      fill="#363636"/>

  </symbol>

  <symbol viewBox="0 0 56 98" id="watch">

    <path
      d="M54.494 32.197H52.979V27.557C52.979 22.505 48.892 18.371 43.897 18.371H9.082C4.086 18.372 0 22.505 0 27.557V70.425C0 75.477 4.087 79.61 9.083 79.61H43.898C48.893 79.61 52.98 75.477 52.98 70.425V67.01H54.495C54.91 67.01 55.252 66.666 55.252 66.246V52.467C55.252 52.046 54.91 51.701 54.495 51.701H52.98V42.913H54.495C55.327 42.913 56.009 42.225 56.009 41.382V33.728C56.008 32.886 55.326 32.197 54.494 32.197ZM34.082 29.088C37.008 29.088 39.381 31.486 39.381 34.446C39.381 37.406 37.008 39.804 34.082 39.804C31.156 39.804 28.784 37.406 28.784 34.446C28.784 31.486 31.156 29.088 34.082 29.088ZM18.945 29.088C21.87 29.088 24.243 31.486 24.243 34.446C24.243 37.406 21.87 39.804 18.945 39.804C16.019 39.804 13.647 37.406 13.647 34.446C13.647 31.486 16.019 29.088 18.945 29.088ZM5.297 49.397C5.297 46.438 7.668 44.039 10.595 44.039C13.521 44.039 15.893 46.438 15.893 49.397C15.893 52.356 13.52 54.755 10.595 54.755C7.668 54.756 5.297 52.356 5.297 49.397ZM18.945 68.894C16.019 68.894 13.647 66.496 13.647 63.536C13.647 60.576 16.019 58.178 18.945 58.178C21.87 58.178 24.243 60.576 24.243 63.536C24.243 66.496 21.87 68.894 18.945 68.894ZM20.435 48.991C20.435 45.609 23.146 42.867 26.49 42.867C29.834 42.867 32.545 45.609 32.545 48.991C32.545 52.373 29.834 55.115 26.49 55.115C23.146 55.114 20.435 52.373 20.435 48.991ZM34.082 68.894C31.156 68.894 28.784 66.496 28.784 63.536C28.784 60.576 31.156 58.178 34.082 58.178C37.008 58.178 39.381 60.576 39.381 63.536C39.381 66.496 37.008 68.894 34.082 68.894ZM42.384 54.756C39.457 54.756 37.086 52.357 37.086 49.398C37.086 46.439 39.457 44.04 42.384 44.04C45.31 44.04 47.682 46.439 47.682 49.398C47.682 52.356 45.31 54.756 42.384 54.756Z"
      fill="#363636"/>
    <path
      d="M9.646 15.31H43.333C44.176 15.31 44.765 14.629 44.639 13.796L43.023 3.028C43.023 3.028 43.023 3.027 43.021 3.026C42.771 1.362 41.189 0 39.506 0H13.474C11.788 0 10.206 1.362 9.957 3.028L8.342 13.795C8.217 14.628 8.803 15.31 9.646 15.31Z"
      fill="#363636"/>
    <path
      d="M43.333 82.671H9.646C8.803 82.671 8.217 83.354 8.342 84.187L9.957 94.954C10.207 96.62 11.789 97.982 13.473 97.982H39.505C41.189 97.982 42.771 96.62 43.022 94.956C43.022 94.955 43.022 94.955 43.022 94.954L44.637 84.187C44.765 83.354 44.176 82.671 43.333 82.671Z"
      fill="#363636"/>
  </symbol>

  <symbol viewBox="0 0 132 69" id="quadrotor">
    <path
      d="M12.0523 0.257888C6.50738 0.745188 1.83838 1.8507 0.575275 2.9303C-0.147425 3.5465 -0.147425 3.5465 0.342875 4.0865C0.987375 4.8062 4.05628 5.73148 7.59048 6.32278C11.5885 6.99078 20.1003 7.0162 21.3136 6.3741C22.5255 5.7061 22.9376 4.96045 22.9376 3.39265C22.9376 1.77395 22.3185 0.976664 20.7198 0.540164C19.274 0.154263 14.9415 -1.19209e-05 12.0523 0.257888Z"
      fill="#363636"/>
    <path
      d="M25.7744 0.488258C25.645 0.771454 25.5161 2.59617 25.5161 4.60007C25.5161 8.66107 25.6714 8.37838 23.3242 8.53318L22.2934 8.61028L22.164 11.1547L22.0351 13.6986L20.8486 13.9818C18.2695 14.6498 16.8496 16.577 17.0571 19.2762C17.185 21.2034 18.0879 22.617 19.6357 23.3631C20.7446 23.8763 21.1054 23.9012 30.8818 23.9012C36.4267 23.9012 41.019 23.9798 41.0703 24.0819C41.1211 24.2103 39.9609 33.4891 38.4907 44.7206C37.0459 55.9511 35.8076 65.7177 35.7822 66.3866C35.7309 68.0038 36.6084 69.0077 38.1299 69.0077C39.3672 69.0077 40.1416 68.3661 40.4512 67.1063C40.5806 66.5926 41.9468 56.7733 43.4693 45.285C44.9913 33.8221 46.3321 24.4163 46.4097 24.4163C46.5127 24.4163 47.4927 25.8294 48.6021 27.552C51.542 32.178 51.001 31.8689 56.2374 31.8689H60.5958V34.6711V37.4987L55.463 37.5758C50.7428 37.6529 50.253 37.7028 49.5817 38.191C48.0089 39.3482 47.9567 39.606 47.9567 49.1676C47.9567 58.7018 47.9831 58.9596 49.4792 60.2174L50.3303 60.9127H66.0129H81.6955L82.5461 60.2174C84.0422 58.9596 84.0666 58.7018 84.0666 49.1676C84.0666 39.6061 84.0158 39.3483 82.4436 38.191C81.7727 37.7027 81.2825 37.6529 76.5618 37.5758L71.43 37.4987V34.6711V31.8689H75.7894C81.0238 31.8689 80.4828 32.178 83.4232 27.552C84.5336 25.8293 85.513 24.4163 85.6166 24.4163C85.6928 24.4163 87.0355 33.8221 88.5561 45.285C90.0786 56.7733 91.4457 66.5926 91.5747 67.1063C91.8843 68.3661 92.6567 69.0077 93.896 69.0077C95.4175 69.0077 96.2954 68.0038 96.2427 66.3866C96.2173 65.7177 94.979 55.9511 93.5337 44.7206C92.0649 33.4892 90.9028 24.2103 90.9556 24.0819C91.0064 23.9798 95.5972 23.9012 101.145 23.9012C110.92 23.9012 111.281 23.8763 112.389 23.3631C113.937 22.617 114.839 21.2034 114.968 19.2762C115.175 16.577 113.757 14.6497 111.177 13.9818L109.99 13.6986L109.863 11.1547L109.734 8.61028L108.702 8.53318C106.355 8.37838 106.508 8.66107 106.508 4.60007C106.508 2.59617 106.38 0.771454 106.251 0.488258C106.045 0.128357 105.708 -2.28882e-05 104.884 -2.28882e-05C104.265 -2.28882e-05 103.646 0.128365 103.464 0.308571C103.258 0.514168 103.155 1.7739 103.155 4.2407C103.155 6.708 103.052 7.96778 102.845 8.17278C102.665 8.35248 101.944 8.48088 101.196 8.48088C99.5698 8.48088 99.5444 8.53308 99.5444 11.5913V13.8784H66.0127H32.4805V11.5913C32.4805 8.53318 32.4556 8.48088 30.8306 8.48088C30.0821 8.48088 29.3604 8.35248 29.1802 8.17278C28.9727 7.96768 28.8701 6.708 28.8701 4.2407C28.8701 1.7739 28.7671 0.514069 28.5605 0.308571C28.3798 0.128365 27.7602 -2.28882e-05 27.1416 -2.28882e-05C26.3169 -2.28882e-05 25.9814 0.128456 25.7744 0.488258ZM68.6172 40.6084C71.5059 41.5068 74.0088 44.001 74.7832 46.7764C75.2217 48.3194 75.0928 50.9922 74.499 52.5596C73.8027 54.4346 71.8144 56.5694 69.9336 57.4951C68.6436 58.1367 68.1797 58.2139 66.0127 58.2139C63.8462 58.2139 63.3818 58.1368 62.0923 57.4951C60.208 56.5693 58.2232 54.4346 57.5264 52.5596C56.9336 50.9922 56.8037 48.3194 57.2427 46.7764C57.9907 44.0528 60.4922 41.5069 63.3042 40.6084C65.3164 39.9659 66.6045 39.9659 68.6172 40.6084Z"
      fill="#363636"/>
    <path
      d="M63.7941 44.4375C61.7575 45.3633 60.2873 48.0869 60.7253 50.168C61.4992 53.8448 65.5485 55.7207 68.7209 53.8701C70.7063 52.7119 71.7121 50.3232 71.1721 48.0869C70.6037 45.6963 68.4377 43.9492 66.0129 43.9492C65.3674 43.9493 64.3874 44.1807 63.7941 44.4375Z"
      fill="#363636"/>
    <path
      d="M36.0918 0.154258C32.1714 0.822258 31.5786 1.28516 31.5786 3.59806C31.5786 5.42276 32.0425 6.01407 33.8467 6.55367C35.3965 7.01607 41.0191 7.06784 44.3467 6.68204C51.2075 5.85974 55.6685 4.13764 54.0454 2.93004C52.7803 2.03014 49.1431 1.05355 44.9912 0.539951C42.5156 0.231951 36.9951 -4.19617e-05 36.0918 0.154258Z"
      fill="#363636"/>
    <path
      d="M89.4844 0.257861C83.1651 0.848161 77.6201 2.33895 77.6201 3.44385C77.6201 5.16605 85.4609 6.91355 93.25 6.93945C99.0537 6.93945 100.446 6.29734 100.446 3.59814C100.446 1.77394 99.8272 0.97656 98.0733 0.51416C96.4238 0.10256 92.3984 -3.86238e-05 89.4844 0.257861Z"
      fill="#363636"/>
    <path
      d="M112.777 0.283252C110.996 0.514252 109.758 1.05377 109.346 1.77397C108.959 2.54447 109.036 4.67775 109.5 5.34575C110.428 6.65675 111.152 6.81104 116.569 6.81104C120.23 6.81104 122.37 6.68215 124.435 6.32275C127.969 5.73145 131.038 4.80617 131.683 4.08647C132.173 3.54647 132.173 3.54647 131.45 2.93027C130.11 1.79937 125.492 0.745161 119.534 0.257861C116.053 -0.0253386 115.046 -0.0253482 112.777 0.283252Z"
      fill="#363636"/>
  </symbol>

  <symbol viewBox="0 0 136 164" id="delivery">
    <g clip-path="url(#clip0)">
      <path
        d="M93.1329 38.7669C101.254 38.7669 108.078 33.2249 110.033 25.7179L115.5 26.5319C115.607 26.5479 115.715 26.5559 115.82 26.5559C116.871 26.5559 117.791 25.7859 117.951 24.7159C118.127 23.5379 117.312 22.4399 116.135 22.2649L110.594 21.4399C110.596 21.3939 110.598 21.3489 110.598 21.3019C110.598 21.1199 110.592 20.9399 110.584 20.7599C110.584 20.7599 110.133 14.2419 109.51 11.5229C108.889 8.80394 106.975 8.22694 106.975 8.22694C97.2049 6.01494 87.2029 5.78894 84.5999 5.78894C81.9969 5.78894 81.4419 7.12094 81.4419 7.12094L78.2919 12.1169L78.2819 12.1139C78.2059 12.2359 78.136 12.3589 78.063 12.4819L78.0359 12.5249C76.5339 15.1049 75.6689 18.1009 75.6689 21.3019C75.6679 30.9479 83.4879 38.7669 93.1329 38.7669Z"
        fill="white"/>
      <path
        d="M131.535 78.076V78.074L104.793 75.906L95.5469 54.794C95.5469 54.794 95.0859 52.02 89.5389 46.318C83.9899 40.616 72.7399 42.928 72.7399 42.928C72.7399 42.928 48.8539 47.397 40.9949 49.246C33.1349 51.096 32.8269 59.109 32.8269 59.109L32.1949 63.628L17.0169 60.687C16.8259 60.65 16.6359 60.632 16.4489 60.632C15.0419 60.632 13.7779 61.632 13.5009 63.061L6.08995 101.303C5.77595 102.923 6.84395 104.505 8.46495 104.819L59.6609 114.742C59.7759 114.764 59.8909 114.766 60.0069 114.775H60.0089C59.2809 114.879 58.7179 114.74 58.7179 114.74L49.3179 112.891L46.2359 129.996L22.6759 150.359C20.9749 151.72 19.8839 153.812 19.8839 156.16C19.8839 160.264 23.2099 163.59 27.3129 163.59C29.3479 163.59 31.1909 162.772 32.5329 161.445C32.5329 161.445 60.2579 139.395 62.1079 137.854C63.9579 136.314 64.8809 134.001 64.8809 134.001C64.8809 134.001 69.422 120.053 70.66 117.127C71.5079 115.123 75.5919 116.048 75.5919 116.048L98.4769 124.679L106.092 153.741C106.174 154.371 106.334 154.975 106.565 155.545H106.567C107.665 158.273 110.337 160.199 113.456 160.199C117.56 160.199 120.886 156.872 120.886 152.769C120.886 152.17 120.814 151.59 120.679 151.033C119.837 146.068 116.075 123.987 115.118 119.207C114.04 113.813 110.497 112.273 110.497 112.273C110.497 112.273 89.229 100.715 87.8429 99.944C86.4559 99.174 86.7649 97.17 86.7649 97.17L90.6949 82.839L93.4679 88.695C93.4679 88.695 95.087 91.969 97.5519 92.086L130.909 92.906C135.013 92.906 138.339 89.58 138.339 85.475C138.338 81.586 135.346 78.396 131.535 78.076ZM60.1039 62.807L58.3149 68.687L68.2129 70.606L47.9989 66.689L48.5469 64.193L60.1039 62.807ZM57.8549 108.28L12.5509 99.499L18.8209 67.146L31.3629 69.577L29.7449 81.144L29.1049 85.55C29.0999 85.576 29.0969 85.606 29.0929 85.632L29.0749 85.759H29.0769C29.0369 86.071 29.0139 86.388 29.0139 86.71C29.0139 90.814 32.3409 94.139 36.4439 94.139C40.5469 94.139 43.8729 90.814 43.8729 86.71C43.8729 86.392 43.8519 86.08 43.8119 85.773L46.7129 72.55L64.1259 75.924L57.8549 108.28Z"
        fill="white"/>
      <path
        d="M25.05 17.008H63.077C64.177 17.008 65.0771 16.112 65.0771 15.018C65.0771 13.924 64.177 13.028 63.077 13.028H25.05C23.95 13.028 23.05 13.924 23.05 15.018C23.05 16.112 23.95 17.008 25.05 17.008Z"
        fill="white"/>
      <path
        d="M38.0798 23.0249C36.9798 23.0249 36.0798 23.9209 36.0798 25.0149C36.0798 26.1089 36.9798 27.0049 38.0798 27.0049H61.0388C62.1388 27.0049 63.0388 26.1089 63.0388 25.0149C63.0388 23.9199 62.1388 23.0249 61.0388 23.0249H38.0798Z"
        fill="white"/>
      <path
        d="M87.0981 32.732C95.2191 32.732 102.043 27.19 103.998 19.683L109.465 20.497C109.572 20.513 109.68 20.521 109.785 20.521C110.836 20.521 111.756 19.751 111.916 18.681C112.092 17.503 111.277 16.405 110.1 16.23L104.559 15.405C104.561 15.359 104.563 15.314 104.563 15.267C104.563 15.085 104.557 14.905 104.549 14.725C104.549 14.725 104.098 8.20703 103.475 5.48803C102.854 2.76903 100.94 2.19203 100.94 2.19203C91.1701 -0.0199716 81.1681 -0.245972 78.5641 -0.245972C75.9601 -0.245972 75.4061 1.08603 75.4061 1.08603L72.2561 6.08203L72.2461 6.07903C72.1701 6.20003 72.1001 6.32403 72.0271 6.44703L72.0001 6.49003C70.4981 9.07003 69.6331 12.066 69.6331 15.267C69.6331 24.913 77.4531 32.732 87.0981 32.732Z"
        fill="#3A3A3A"/>
      <path
        d="M125.5 72.0411V72.0391L98.7579 69.8711L89.5119 48.7591C89.5119 48.7591 89.0509 45.9851 83.5039 40.2831C77.9549 34.5811 66.7049 36.8931 66.7049 36.8931C66.7049 36.8931 42.8189 41.3621 34.9599 43.2101C27.0999 45.0601 26.7919 53.0731 26.7919 53.0731L23.7099 75.1091L23.0699 79.5151C23.0649 79.5411 23.0619 79.5711 23.0579 79.5971L23.0399 79.7241H23.0419C23.0019 80.0361 22.9789 80.3531 22.9789 80.6751C22.9789 84.7791 26.3059 88.1041 30.4089 88.1041C34.5119 88.1041 37.8379 84.7791 37.8379 80.6751C37.8379 80.3571 37.8169 80.0451 37.7769 79.7381L42.5109 58.1571L54.0679 56.7711L52.2789 62.6511L62.1769 64.5701C63.7969 64.8831 64.8649 66.4661 64.5519 68.0871L57.1399 106.33C56.8629 107.76 55.5989 108.76 54.1919 108.76C54.1199 108.76 54.0459 108.744 53.9719 108.739C53.2439 108.843 52.6809 108.704 52.6809 108.704L43.2809 106.855L40.1989 123.96L16.6389 144.323C14.9379 145.684 13.8469 147.776 13.8469 150.124C13.8469 154.228 17.1729 157.554 21.2759 157.554C23.3109 157.554 25.1539 156.736 26.4959 155.409C26.4959 155.409 54.2209 133.359 56.0709 131.818C57.9209 130.278 58.8439 127.965 58.8439 127.965C58.8439 127.965 63.3849 114.017 64.6229 111.091C65.4709 109.087 69.5549 110.012 69.5549 110.012L92.4399 118.643L100.055 147.705C100.137 148.335 100.297 148.939 100.528 149.509H100.53C101.628 152.237 104.3 154.163 107.419 154.163C111.523 154.163 114.849 150.836 114.849 146.733C114.849 146.134 114.777 145.554 114.642 144.997C113.8 140.032 110.038 117.951 109.081 113.171C108.003 107.777 104.46 106.237 104.46 106.237C104.46 106.237 83.1929 94.6821 81.8069 93.9101C80.4199 93.1401 80.7289 91.1361 80.7289 91.1361L84.6589 76.8051L87.4319 82.6611C87.4319 82.6611 89.0509 85.9351 91.5159 86.0521L124.873 86.8721C128.977 86.8721 132.303 83.5461 132.303 79.4411C132.303 75.5511 129.311 72.3601 125.5 72.0411Z"
        fill="#3A3A3A"/>
      <path
        d="M53.971 108.739H53.973C54.046 108.745 54.12 108.76 54.193 108.76C55.6 108.76 56.864 107.76 57.141 106.33L64.553 68.087C64.866 66.466 63.798 64.884 62.178 64.57L41.964 60.653L40.678 66.515L58.091 69.889L51.82 102.243L6.51603 93.464L12.786 61.111L25.328 63.542L26.16 57.592L10.982 54.65C10.791 54.613 10.601 54.595 10.414 54.595C9.00703 54.595 7.74303 55.595 7.46603 57.024L0.0550335 95.268C-0.258966 96.888 0.809034 98.47 2.43003 98.784L53.626 108.707C53.74 108.729 53.855 108.73 53.971 108.739Z"
        fill="#F0C42E"/>
      <path
        d="M59.0419 8.98194C59.0419 10.0769 58.1419 10.9719 57.0419 10.9719H19.0149C17.9149 10.9719 17.0149 10.0759 17.0149 8.98194C17.0149 7.88794 17.9149 6.99194 19.0149 6.99194H57.0419C58.1419 6.99294 59.0419 7.88794 59.0419 8.98194Z"
        fill="#F0C52E"/>
      <path
        d="M57.0039 18.98C57.0039 20.074 56.1039 20.97 55.0039 20.97H32.0439C30.9439 20.97 30.0439 20.074 30.0439 18.98C30.0439 17.885 30.9439 16.99 32.0439 16.99H55.0029C56.1039 16.99 57.0039 17.886 57.0039 18.98Z"
        fill="#F0C52E"/>
    </g>
    <defs>
      <clipPath id="clip0">
        <rect width="136" height="164" fill="white"/>
      </clipPath>
    </defs>
  </symbol>

  <symbol viewBox="0 0 171 195" id="warranty">
    <g clip-path="url(#clip0)">
      <path
        d="M77.6941 174.636C77.5901 174.506 67.1991 161.64 65.0851 158.876C63.7641 157.149 61.7781 156.198 59.4921 156.198C56.9321 156.198 54.6561 157.368 53.9801 157.751L48.4941 160.494C46.7211 160.015 42.9071 158.544 39.2141 154.226C35.9301 150.387 35.9531 145.24 36.1281 143.127L42.0211 137.234C45.1141 134.517 44.4731 130.718 43.2671 128.803L43.0481 128.492C43.0481 128.492 30.1861 112.271 28.3821 109.994C27.3931 108.745 25.9071 108.056 24.1981 108.056C21.3491 108.056 18.3191 110.031 17.4421 110.648C6.55711 118.397 5.85611 125.21 5.81111 125.961L5.78711 126.375L5.86111 126.784C12.2731 162.51 31.8871 177.921 41.3141 185.327C42.4621 186.228 43.4541 187.008 44.1681 187.633C50.7311 193.38 57.9301 194 60.7211 194C63.0961 193.999 65.2011 193.595 66.8101 192.829C71.1761 190.751 76.2351 184.819 77.6821 183.051C80.1831 179.992 78.9651 176.452 77.8501 174.843L77.6941 174.636ZM63.8011 186.509C63.3021 186.746 62.2311 187 60.7201 187C59.1601 187 53.6881 186.666 48.7761 182.368C47.9221 181.621 46.8631 180.789 45.6371 179.825C36.9431 172.995 18.9081 158.824 12.8571 126.141C13.1461 125.162 14.6861 121.203 21.4771 116.37C22.1291 115.917 22.9851 115.466 23.5961 115.228C26.4271 118.8 35.0061 129.62 37.0981 132.258L29.5701 139.785L29.3671 140.84C29.2861 141.262 27.4561 151.249 33.8941 158.777C40.1801 166.126 47.1441 167.444 48.4771 167.633L49.5591 167.787L57.2031 163.964L57.4211 163.846C57.7021 163.679 58.7561 163.198 59.4921 163.198C59.5281 163.198 59.5571 163.199 59.5801 163.201C61.7291 166.001 70.6851 177.098 72.0801 178.825C72.0811 178.829 72.0821 178.832 72.0841 178.835C69.5221 181.93 65.9111 185.504 63.8011 186.509Z"
        fill="white"/>
      <path
        d="M137.85 65.8239C143.362 60.6469 145.006 53.8489 142.883 45.0409C142.676 44.1849 142.035 43.4999 141.194 43.2389C140.352 42.9769 139.434 43.1789 138.78 43.7689L130.559 51.1719C129.121 50.3769 126.883 48.7209 126.094 45.8419L132.897 39.1129C133.844 38.1749 133.889 36.6599 133.001 35.6669L132.815 35.4599C132.622 35.2439 132.393 35.0639 132.137 34.9269C131.977 34.8409 128.149 32.8109 123.313 32.8109C118.604 32.8109 114.454 34.7319 111.311 38.3669C105.311 45.3049 106.754 53.4089 107.768 56.8379L104.28 60.3259L93.9962 51.0899L98.7132 47.8239L78.6712 34.0999L68.0702 44.7029L81.7942 64.7439L85.0602 60.0269L94.2972 70.3089L91.0022 73.6029C89.5022 73.1249 87.1192 72.5509 84.3392 72.5509C78.9102 72.5509 74.1032 74.7249 70.3772 78.9099C70.1062 79.2389 63.7782 87.0749 67.6262 97.5309C67.9102 98.3039 68.5572 98.8869 69.3552 99.0909C70.1512 99.2939 71.0002 99.0919 71.6192 98.5499L79.9142 91.2909C81.2372 91.8579 83.5362 93.3709 84.5732 97.2159L77.1892 104.732C76.5552 105.377 76.3192 106.314 76.5722 107.182C76.8252 108.05 77.5262 108.714 78.4072 108.919C78.5172 108.944 81.1312 109.542 84.5822 109.542C91.4222 109.542 96.6942 107.271 99.8272 102.975C103.19 98.3619 103.921 93.5419 103.821 89.8869L120.038 106.104L120.21 106.262C121.731 107.522 124.528 108.987 127.661 108.987C129.888 108.987 132.286 108.246 134.513 106.163L140.031 100.647L140.133 100.543C145.145 95.1849 142.391 88.8449 140.233 86.2409L123.288 69.2819C124.315 69.3879 125.436 69.4629 126.61 69.4629C131.498 69.4619 135.279 68.2379 137.85 65.8239ZM84.5512 51.9779L81.8172 55.9269L74.5412 45.3019L79.2722 40.5699L89.8972 47.8459L85.9472 50.5799L100.739 63.8659L96.6452 67.9589L97.8362 66.7669L84.5512 51.9779ZM98.1132 85.5019C98.2222 85.8149 100.728 93.2479 95.7852 100.029C93.0152 103.827 88.0372 104.555 84.3852 104.541L89.0882 99.7539C89.6542 99.1779 89.9082 98.3629 89.7682 97.5669C87.9772 87.4199 80.0232 86.0829 79.6852 86.0309C78.9562 85.9209 78.2142 86.1349 77.6582 86.6199L71.4542 92.0479C70.9322 86.4879 73.8672 82.5589 74.2132 82.1159C76.9342 79.0859 80.3402 77.5499 84.3382 77.5499C87.8532 77.5499 90.5692 78.7609 90.5872 78.7699C91.5402 79.2089 92.6632 79.0109 93.4052 78.2689L112.405 59.2689C113.13 58.5449 113.339 57.4529 112.932 56.5129C112.897 56.4299 109.438 48.1729 115.09 41.6369C117.285 39.0979 120.051 37.8109 123.311 37.8109C124.541 37.8109 125.694 37.9939 126.676 38.2319L121.629 43.2249C121.078 43.7689 120.811 44.5369 120.904 45.3049C121.916 53.6049 129.873 56.3819 130.211 56.4959C131.066 56.7839 132.012 56.5899 132.684 55.9849L138.733 50.5379C139.106 55.4019 137.713 59.0919 134.424 62.1799C132.416 64.0669 129.065 64.4629 126.606 64.4629C122.917 64.4629 119.655 63.5979 119.624 63.5899C118.759 63.3539 117.829 63.6039 117.194 64.2429L98.6942 82.9099C98.0232 83.5869 97.8012 84.5999 98.1132 85.5019ZM103.615 87.3439C103.615 87.3469 103.615 87.3489 103.615 87.3519C103.615 87.3489 103.615 87.3469 103.615 87.3439ZM103.434 86.2229C103.444 86.2749 103.454 86.3269 103.463 86.3809C103.453 86.3289 103.443 86.2739 103.434 86.2229ZM136.525 97.0789L131.046 102.555C127.798 105.535 124.146 102.987 123.47 102.468L104.827 83.8229L119.768 68.7479L117.733 70.8009L136.44 89.5069C136.9 90.0989 139.537 93.7939 136.525 97.0789ZM121.316 69.0249C121.324 69.0259 121.332 69.0269 121.339 69.0289C121.332 69.0269 121.324 69.0259 121.316 69.0249ZM120.473 68.8819C120.493 68.8859 120.518 68.8899 120.539 68.8939C120.516 68.8899 120.494 68.8859 120.473 68.8819Z"
        fill="white"/>
      <path
        d="M104.162 6.00195C67.7542 6.00195 38.2402 35.516 38.2402 71.924C38.2402 105.441 63.2602 133.096 95.6382 137.278V163.502C95.6382 163.502 153.077 142.259 167.607 89.88C167.685 89.597 167.746 89.342 167.818 89.068C167.931 88.644 168.043 88.218 168.148 87.791C168.212 87.528 168.267 87.277 168.326 87.022C169.463 82.171 170.084 77.121 170.084 71.924C170.084 35.516 140.57 6.00195 104.162 6.00195ZM161.51 85.424L161.504 85.451L161.498 85.478L161.469 85.608C161.43 85.778 161.393 85.947 161.35 86.123C161.256 86.499 161.159 86.8739 161.049 87.284L160.945 87.684C160.92 87.792 160.892 87.9 160.863 88.008C155.299 108.064 142.343 125.708 122.357 140.45C114.984 145.888 107.949 149.914 102.638 152.625V137.277V131.123L96.5342 130.335C67.2912 126.558 45.2392 101.446 45.2392 71.923C45.2392 39.4329 71.6712 13.001 104.161 13.001C136.649 13.001 163.083 39.4329 163.083 71.923C163.084 76.432 162.555 80.974 161.51 85.424Z"
        fill="white"/>
      <path
        d="M54.583 187.998C51.792 187.998 44.5939 187.378 38.0289 181.634C37.3149 181.009 36.3229 180.23 35.1749 179.328C25.749 171.922 6.13395 156.511 -0.278051 120.785L-0.352051 120.376L-0.328051 119.962C-0.284051 119.21 0.41795 112.398 11.3029 104.649C12.1799 104.032 15.2099 102.057 18.0589 102.057C19.7669 102.057 21.2529 102.745 22.2429 103.995C24.0469 106.272 36.909 122.493 36.909 122.493L37.1279 122.804C38.334 124.719 38.9749 128.518 35.882 131.235L29.9889 137.128C29.8139 139.24 29.791 144.388 33.075 148.227C36.767 152.544 40.582 154.016 42.3549 154.495L47.841 151.752C48.5169 151.369 50.7929 150.199 53.353 150.199C55.639 150.199 57.625 151.15 58.9459 152.877C61.0599 155.641 71.4499 168.507 71.5549 168.637L71.7099 168.844C72.8249 170.453 74.0429 173.993 71.5419 177.052C70.0949 178.821 65.0369 184.752 60.6699 186.83C59.063 187.593 56.958 187.997 54.583 187.998ZM6.71995 120.14C12.7709 152.823 30.806 166.994 39.5 173.824C40.726 174.788 41.785 175.62 42.639 176.367C47.5509 180.665 53.0229 180.999 54.583 180.999C56.094 180.999 57.165 180.745 57.664 180.508C59.774 179.503 63.3859 175.929 65.9479 172.834C65.9469 172.831 65.9449 172.828 65.9439 172.824C64.5499 171.097 55.5929 160 53.444 157.2C53.421 157.198 53.3909 157.197 53.3559 157.197C52.6199 157.197 51.5659 157.678 51.285 157.845L51.067 157.963L43.423 161.786L42.341 161.632C41.0079 161.443 34.0439 160.124 27.7579 152.776C21.3199 145.249 23.15 135.261 23.2309 134.839L23.4339 133.784L30.9619 126.257C28.8699 123.618 20.2909 112.799 17.4599 109.227C16.8489 109.464 15.9929 109.915 15.3409 110.369C8.54795 115.202 7.00795 119.161 6.71995 120.14Z"
        fill="#3A3A3A"/>
      <path
        d="M78.443 103.54C74.991 103.54 72.378 102.942 72.268 102.917C71.387 102.712 70.685 102.048 70.433 101.18C70.181 100.312 70.416 99.374 71.05 98.73L78.434 91.214C77.397 87.369 75.098 85.857 73.775 85.289L65.48 92.548C64.86 93.09 64.012 93.292 63.216 93.089C62.418 92.886 61.772 92.302 61.487 91.53C57.639 81.073 63.967 73.237 64.238 72.908C67.964 68.723 72.771 66.549 78.2 66.549C80.98 66.549 83.362 67.123 84.863 67.601L101.629 50.836C100.616 47.406 99.172 39.302 105.172 32.365C108.315 28.731 112.465 26.809 117.174 26.809C122.011 26.809 125.838 28.838 125.999 28.925C126.254 29.062 126.483 29.242 126.676 29.458L126.862 29.665C127.752 30.658 127.707 32.173 126.758 33.111L119.955 39.84C120.744 42.719 122.983 44.375 124.42 45.17L132.642 37.767C133.296 37.177 134.214 36.975 135.055 37.237C135.897 37.498 136.538 38.182 136.745 39.039C138.868 47.848 137.223 54.645 131.712 59.822C129.142 62.236 125.359 63.46 120.47 63.46C117.681 63.46 115.146 63.053 113.631 62.746L97.127 79.399C97.856 82.58 98.758 90.019 93.688 96.973C90.555 101.269 85.283 103.54 78.443 103.54ZM78.247 98.539C81.898 98.554 86.878 97.825 89.647 94.027C94.591 87.246 92.085 79.813 91.976 79.5C91.663 78.598 91.885 77.585 92.558 76.907L111.058 58.24C111.692 57.601 112.622 57.351 113.488 57.587C113.518 57.595 116.781 58.46 120.47 58.46C122.928 58.46 126.281 58.064 128.288 56.177C131.576 53.089 132.969 49.399 132.597 44.535L126.548 49.982C125.876 50.586 124.931 50.781 124.075 50.493C123.737 50.379 115.78 47.602 114.768 39.302C114.674 38.534 114.941 37.766 115.492 37.222L120.539 32.229C119.558 31.991 118.404 31.808 117.174 31.808C113.915 31.808 111.15 33.096 108.953 35.634C103.302 42.17 106.761 50.427 106.796 50.51C107.201 51.45 106.992 52.543 106.268 53.266L87.268 72.266C86.527 73.008 85.403 73.206 84.451 72.767C84.433 72.759 81.716 71.547 78.201 71.547C74.203 71.547 70.797 73.083 68.076 76.113C67.729 76.555 64.794 80.485 65.317 86.045L71.521 80.617C72.077 80.131 72.819 79.917 73.548 80.028C73.885 80.08 81.839 81.417 83.63 91.564C83.771 92.36 83.518 93.174 82.951 93.751L78.247 98.539Z"
        fill="#F0C42E"/>
      <path
        d="M78.9209 54.025L88.1579 64.307L91.6979 60.766L78.4129 45.976L75.6779 49.925L68.4019 39.301L73.1339 34.569L83.7589 41.845L79.8089 44.579L94.5999 57.865L98.1409 54.324L87.8579 45.088L92.5749 41.822L72.5329 28.098L61.9319 38.701L75.6559 58.742L78.9209 54.025Z"
        fill="#3A3A3A"/>
      <path
        d="M117.147 63.28C115.734 63.134 114.507 62.924 113.63 62.746L111.596 64.799L130.302 83.505C130.762 84.097 133.399 87.792 130.386 91.077L124.908 96.553C121.66 99.533 118.007 96.985 117.332 96.466L98.69 77.821L97.127 79.399C97.372 80.469 97.632 82.029 97.682 83.884L113.899 100.102L114.072 100.26C115.593 101.52 118.39 102.985 121.522 102.985C123.75 102.985 126.147 102.244 128.375 100.161L133.893 94.645L133.995 94.542C139.007 89.184 136.252 82.843 134.094 80.239L117.147 63.28Z"
        fill="#3A3A3A"/>
      <path
        d="M98.0231 7C130.512 7 156.945 33.432 156.945 65.922C156.945 70.43 156.416 74.972 155.372 79.422L155.366 79.449L155.359 79.476L155.33 79.606C155.292 79.776 155.254 79.945 155.212 80.121C155.118 80.497 155.021 80.872 154.91 81.282L154.807 81.682C154.781 81.79 154.753 81.898 154.724 82.006C149.16 102.062 136.204 119.706 116.218 134.448C108.845 139.886 101.81 143.912 96.4991 146.623V131.275V125.121L90.395 124.333C61.152 120.556 39.1011 95.444 39.1011 65.921C39.1021 33.432 65.5341 7 98.0231 7ZM98.0231 0C61.6161 0 32.1021 29.514 32.1021 65.922C32.1021 99.439 57.1221 127.094 89.5 131.276V157.5C89.5 157.5 146.939 136.257 161.47 83.878C161.548 83.595 161.608 83.34 161.68 83.066C161.794 82.642 161.905 82.216 162.011 81.789C162.074 81.526 162.13 81.275 162.188 81.02C163.326 76.169 163.946 71.119 163.946 65.922C163.945 29.514 134.432 0 98.0231 0Z"
        fill="#3A3A3A"/>
    </g>
    <defs>
      <clipPath id="clip0">
        <rect width="171" height="195" fill="white"/>
      </clipPath>
    </defs>
  </symbol>

  <symbol viewBox="0 0 156 188" id="credit">
    <path
      d="M141.25 83.627C149.396 83.627 156 77.0232 156 68.877C156 60.7308 149.396 54.127 141.25 54.127C133.104 54.127 126.5 60.7308 126.5 68.877C126.5 77.0232 133.104 83.627 141.25 83.627Z"
      fill="white"/>
    <path
      d="M89.1131 139.544L82.0391 157.419L59.2151 172.336C57.0471 173.568 55.5811 175.895 55.5811 178.566C55.5811 182.524 58.7891 185.733 62.7481 185.733C64.2831 185.733 65.7031 185.246 66.8691 184.423C70.6301 182.052 89.2201 170.339 92.3641 168.543C95.8641 166.543 96.4891 163.418 96.4891 163.418L101.364 147.418C101.364 147.418 101.364 147.418 95.6141 144.793C89.8641 142.168 89.1131 139.544 89.1131 139.544Z"
      fill="white"/>
    <path
      d="M139.321 141.462C139.321 141.462 138.163 137.628 134.742 136.295C131.321 134.962 116.655 128.545 116.655 128.545L132.071 102.961C132.071 102.961 135.905 93.961 131.738 89.544C127.571 85.127 117.988 79.794 117.988 79.794H110.467L126.266 52.993C129.62 47.307 127.709 39.912 122.024 36.561L72.6331 7.447C66.9471 4.095 59.5541 6.005 56.2021 11.691L9.14406 91.519C5.79306 97.204 7.70206 104.599 13.3881 107.951L62.7781 137.064C68.4641 140.416 75.8591 138.505 79.2101 132.822L102.144 93.919H110.24L95.4901 120.128C95.4901 120.128 90.3561 129.342 95.1561 134.378C99.3651 138.794 107.823 141.294 107.823 141.294L125.073 147.795L130.174 179.086L130.183 179.085C130.732 182.498 133.682 185.108 137.25 185.108C141.208 185.108 144.416 181.899 144.416 177.941C144.416 177.752 144.402 177.566 144.388 177.381L144.416 177.377L139.321 141.462ZM17.9581 100.198C16.5571 99.372 16.0711 97.49 16.8971 96.09L63.9561 16.261C64.7821 14.86 66.6631 14.373 68.0631 15.199L79.5841 21.991L29.4801 106.989L17.9581 100.198ZM71.4561 128.252C70.6301 129.652 68.7491 130.139 67.3491 129.313L37.2331 111.559L87.3401 26.563L117.453 44.316C118.855 45.142 119.34 47.023 118.515 48.423L100.022 79.795H91.2391L71.3231 94.222C70.8811 94.474 70.4701 94.775 70.0931 95.113L70.0621 95.135L70.0641 95.138C68.6191 96.45 67.7061 98.336 67.7061 100.442C67.7061 104.4 70.9141 107.609 74.8731 107.609C76.4211 107.609 77.8511 107.113 79.0221 106.278L79.0241 106.281L79.0951 106.223C79.2771 106.09 79.4511 105.95 79.6191 105.8L89.2791 98.016L71.4561 128.252Z"
      fill="white"/>
    <path
      d="M49.2189 5.94296L2.16091 85.772C-1.19009 91.457 0.718907 98.852 6.40491 102.204L55.7949 131.317C61.4809 134.669 68.8759 132.758 72.2269 127.075L119.284 47.246C122.638 41.56 120.727 34.165 115.042 30.814L65.6499 1.69996C59.9649 -1.65204 52.5709 0.257962 49.2189 5.94296ZM9.91391 90.343L56.9729 10.514C57.7989 9.11296 59.6799 8.62596 61.0799 9.45196L72.6009 16.244L22.4959 101.242L10.9739 94.451C9.57391 93.625 9.08791 91.743 9.91391 90.343ZM111.531 42.676L64.4719 122.505C63.6459 123.905 61.7649 124.392 60.3649 123.566L30.2489 105.812L80.3549 20.816L110.468 38.569C111.871 39.394 112.355 41.275 111.531 42.676Z"
      fill="#F0C42E"/>
    <path
      d="M135.25 77.833C143.396 77.833 150 71.2292 150 63.083C150 54.9368 143.396 48.333 135.25 48.333C127.104 48.333 120.5 54.9368 120.5 63.083C120.5 71.2292 127.104 77.833 135.25 77.833Z"
      fill="#3A3A3A"/>
    <path
      d="M81.875 133.75L74.801 151.625L51.976 166.542C49.808 167.774 48.342 170.101 48.342 172.772C48.342 176.73 51.55 179.939 55.509 179.939C57.044 179.939 58.464 179.452 59.63 178.629C63.391 176.258 81.981 164.545 85.125 162.749C88.625 160.749 89.25 157.624 89.25 157.624L94.125 141.624C94.125 141.624 94.125 141.624 88.375 138.999C82.625 136.374 81.875 133.75 81.875 133.75Z"
      fill="#3A3A3A"/>
    <path
      d="M132.083 135.668C132.083 135.668 130.925 131.834 127.504 130.501C124.083 129.168 109.417 122.751 109.417 122.751L124.833 97.167C124.833 97.167 128.667 88.167 124.5 83.75C120.333 79.333 110.75 74 110.75 74H84L64.085 88.427C63.643 88.68 63.232 88.98 62.855 89.318L62.824 89.34L62.826 89.343C61.381 90.654 60.468 92.541 60.468 94.646C60.468 98.604 63.676 101.813 67.635 101.813C69.183 101.813 70.613 101.317 71.784 100.482L71.786 100.485L71.857 100.427C72.039 100.294 72.214 100.154 72.382 100.004L87.125 88.123H103L88.25 114.332C88.25 114.332 83.116 123.546 87.916 128.582C92.125 132.998 100.583 135.498 100.583 135.498L117.833 141.999L122.934 173.29L122.943 173.289C123.492 176.702 126.442 179.312 130.01 179.312C133.968 179.312 137.176 176.103 137.176 172.145C137.176 171.956 137.162 171.77 137.148 171.585L137.176 171.581L132.083 135.668Z"
      fill="#3A3A3A"/>

  </symbol>

  <symbol viewBox="0 0 32 32" id="twitter">
    <path d="M16 32C13.8333 32 11.7604 31.5781 9.78125 30.7344C7.80208 29.8906 6.09896 28.7552 4.67188 27.3281C3.24479 25.901 2.10938 24.1979 1.26562 22.2188C0.421875 20.2396 0 18.1667 0 16C0 13.8333 0.421875 11.7604 1.26562 9.78125C2.10938 7.80208 3.24479 6.09896 4.67188 4.67188C6.09896 3.24479 7.80208 2.10938 9.78125 1.26562C11.7604 0.421875 13.8333 0 16 0C18.1667 0 20.2396 0.421875 22.2188 1.26562C24.1979 2.10938 25.901 3.24479 27.3281 4.67188C28.7552 6.09896 29.8906 7.80208 30.7344 9.78125C31.5781 11.7604 32 13.8333 32 16C32 18.1667 31.5781 20.2396 30.7344 22.2188C29.8906 24.1979 28.7552 25.901 27.3281 27.3281C25.901 28.7552 24.1979 29.8906 22.2188 30.7344C20.2396 31.5781 18.1667 32 16 32ZM25.4062 8C25.2812 8.0625 25.0938 8.17708 24.8438 8.34375L24.2344 8.75L23.6562 9.0625L23 9.28125C22.2292 8.42708 21.2812 8 20.1562 8C17.7188 8 16.5 9.02083 16.5 11.0625V12.9062C13.1458 12.7396 10.5729 11.5104 8.78125 9.21875C8.26042 9.76042 8 10.3542 8 11C8 12.375 8.51042 13.4167 9.53125 14.125C9.40625 14.125 9.22917 14.1354 9 14.1562C8.77083 14.1771 8.58854 14.1771 8.45312 14.1562C8.31771 14.1354 8.16667 14.0833 8 14C8 14.9583 8.25521 15.7552 8.76562 16.3906C9.27604 17.026 9.97917 17.4375 10.875 17.625C10.6667 17.875 10.375 18 10 18C9.66667 18 9.375 17.9062 9.125 17.7188C9.125 18.5312 9.51562 19.1615 10.2969 19.6094C11.0781 20.0573 11.9583 20.2917 12.9375 20.3125C12.5625 20.875 12.0156 21.2969 11.2969 21.5781C10.5781 21.8594 9.8125 22 9 22C8.70833 22 8.30729 21.9271 7.79688 21.7812C7.28646 21.6354 7.02083 21.5625 7 21.5625C7.33333 22.2292 8.01562 22.8021 9.04688 23.2812C10.0781 23.7604 11.3854 24 12.9688 24C14.3646 24 15.6667 23.7552 16.875 23.2656C18.0833 22.776 19.1146 22.125 19.9688 21.3125C20.8229 20.5 21.5573 19.5729 22.1719 18.5312C22.7865 17.4896 23.2448 16.4115 23.5469 15.2969C23.849 14.1823 24 13.0833 24 12C24 11.9583 24.125 11.8698 24.375 11.7344C24.625 11.599 24.9167 11.4167 25.25 11.1875C25.5833 10.9583 25.8333 10.7188 26 10.4688C24.875 10.4688 24.125 10.4896 23.75 10.5312C24.4792 10.0938 25.0312 9.25 25.4062 8Z"/>


  </symbol>

  <symbol viewBox="0 0 32 32" id="instagram">
    <path d="M21 16C21 17.3261 20.4732 18.5979 19.5355 19.5355C18.5979 20.4732 17.3261 21 16 21C14.6739 21 13.4021 20.4732 12.4645 19.5355C11.5268 18.5979 11 17.3261 11 16C11 15.715 11.03 15.4367 11.0817 15.1667H9.33333V21.8283C9.33333 22.2917 9.70833 22.6667 10.1717 22.6667H21.83C22.0521 22.6662 22.2649 22.5777 22.4217 22.4205C22.5786 22.2634 22.6667 22.0504 22.6667 21.8283V15.1667H20.9183C20.97 15.4367 21 15.715 21 16ZM16 19.3333C16.4378 19.3332 16.8714 19.2469 17.2759 19.0792C17.6803 18.9116 18.0478 18.6659 18.3574 18.3562C18.6669 18.0465 18.9124 17.6789 19.0799 17.2743C19.2473 16.8698 19.3334 16.4362 19.3333 15.9983C19.3332 15.5605 19.2469 15.1269 19.0792 14.7225C18.9116 14.318 18.6659 13.9505 18.3562 13.641C18.0465 13.3314 17.6789 13.0859 17.2743 12.9185C16.8698 12.751 16.4362 12.6649 15.9983 12.665C15.1141 12.6652 14.2661 13.0167 13.641 13.6421C13.0158 14.2676 12.6648 15.1157 12.665 16C12.6652 16.8843 13.0167 17.7322 13.6421 18.3574C14.2676 18.9825 15.1157 19.3336 16 19.3333ZM20 12.5H21.9983C22.1311 12.5 22.2584 12.4474 22.3525 12.3537C22.4465 12.2599 22.4996 12.1328 22.5 12V10.0017C22.5 9.86862 22.4471 9.74102 22.3531 9.64693C22.259 9.55285 22.1314 9.5 21.9983 9.5H20C19.8669 9.5 19.7393 9.55285 19.6453 9.64693C19.5512 9.74102 19.4983 9.86862 19.4983 10.0017V12C19.5 12.275 19.725 12.5 20 12.5ZM16 0C11.7565 0 7.68687 1.68571 4.68629 4.68629C1.68571 7.68687 0 11.7565 0 16C0 20.2435 1.68571 24.3131 4.68629 27.3137C7.68687 30.3143 11.7565 32 16 32C18.1012 32 20.1817 31.5861 22.1229 30.7821C24.0641 29.978 25.828 28.7994 27.3137 27.3137C28.7994 25.828 29.978 24.0641 30.7821 22.1229C31.5861 20.1817 32 18.1012 32 16C32 13.8989 31.5861 11.8183 30.7821 9.87706C29.978 7.93586 28.7994 6.17203 27.3137 4.68629C25.828 3.20055 24.0641 2.022 22.1229 1.21793C20.1817 0.413852 18.1012 0 16 0ZM24.3333 22.4817C24.3333 23.5 23.5 24.3333 22.4817 24.3333H9.51833C8.5 24.3333 7.66667 23.5 7.66667 22.4817V9.51833C7.66667 8.5 8.5 7.66667 9.51833 7.66667H22.4817C23.5 7.66667 24.3333 8.5 24.3333 9.51833V22.4817Z"/>

  </symbol>


  <symbol viewBox="0 0 32 32" id="facebook">
    <path d="M31.9973 16C31.9973 7.16267 24.8347 0 15.9987 0C7.16267 0 0 7.16267 0 16C0 23.984 5.85067 30.6027 13.4987 31.8027V20.624H9.43733V15.9987H13.4987V12.4747C13.4987 8.464 15.888 6.24933 19.5413 6.24933C21.292 6.24933 23.1227 6.56133 23.1227 6.56133V10.4987H21.1067C19.12 10.4987 18.5 11.732 18.5 12.9973V16H22.9373L22.228 20.6253H18.5V31.804C26.148 30.604 31.9987 23.9853 31.9987 16H31.9973Z"/>

  </symbol>

  <symbol viewBox="0 0 21 21" id="icon_check">
    <path fill-rule="evenodd" clip-rule="evenodd" d="M5.07692 8.75L3.38461 10.5L8.46154 15.75L16.9231 7L15.2308 5.25L8.46154 12.25L5.07692 8.75Z" fill="black"/>

  </symbol>

  <symbol viewBox="0 0 115 33" id="html_academy">


    <path d="M0 12.8691V15.4429H2.45789V12.8691H0Z" fill="#F0C52E"/>
    <path d="M11.6466 4.52562C10.0864 4.52562 8.8254 5.23341 8.03461 6.26294H7.94911V0H5.9187V15.4429H7.94911V10.1451C7.94911 8.02172 9.27424 6.49888 11.2192 6.49888C13.0573 6.49888 14.1259 7.87158 14.1259 9.71614V15.4429H16.1563V9.35153C16.1563 6.41308 14.3396 4.52562 11.6466 4.52562Z" fill="#F0C52E"/>
    <path d="M26.6171 4.82696H21.8082V1.07349H19.7778V4.82696H17.8542V6.80022H19.7778V12.7843C19.7778 14.5002 20.7396 15.4439 22.4708 15.4439H26.6171V13.4492H22.8769C22.193 13.4492 21.8082 13.0632 21.8082 12.3983V6.80022H26.6171V4.82696Z" fill="#F0C52E"/>
    <path d="M41.1216 4.54712C39.4971 4.54712 38.2577 5.34071 37.5737 6.60617H37.5096C36.8897 5.36217 35.7356 4.54712 34.1541 4.54712C32.7434 4.54712 31.6747 5.29781 31.0336 6.3488H30.948V4.82596H29.0032V15.4429H31.0336V9.99503C31.0336 8.00032 32.0807 6.54184 33.6625 6.49894C35.1584 6.45604 36.0348 7.52846 36.0348 9.13708V15.4429H38.0653V9.82343C38.0653 7.44266 39.4759 6.49894 40.6941 6.49894C42.1689 6.49894 43.0452 7.52846 43.0452 9.13708V15.4429H45.0754V8.92261C45.0754 6.3488 43.6222 4.54712 41.1216 4.54712Z" fill="#F0C52E"/>
    <path d="M47.8271 12.6975C47.8271 14.4348 48.8103 15.4429 50.6269 15.4429H52.6359V13.4696H50.9261C50.2421 13.4696 49.8574 13.0835 49.8574 12.4186V0H47.8271V12.6975Z" fill="#F0C52E"/>
    <path d="M28.9048 19.6888H28.8192C28.027 18.6227 26.7425 17.8764 25.0295 17.8551C21.882 17.8124 19.6338 20.1365 19.6338 23.4202C19.6338 26.7252 21.9248 29.0494 25.008 29.0068C26.7637 28.9853 28.027 28.1965 28.8192 27.0663H28.9048V28.7081H30.9177V18.1536H28.9048V19.6888ZM25.3077 27.0451C23.081 27.0451 21.6679 25.4245 21.6679 23.4202C21.6679 21.4159 23.081 19.7954 25.3077 19.7954C27.4703 19.7954 28.8836 21.4159 28.8836 23.4202C28.8836 25.4033 27.4703 27.0451 25.3077 27.0451Z" fill="#F0C52E"/>
    <path d="M44.2094 21.9915C43.7168 19.6034 41.5972 17.855 38.8138 17.855C35.4523 17.855 33.2041 20.307 33.2041 23.4201C33.2041 26.5331 35.4523 29.0067 38.8138 29.0067C41.5972 29.0067 43.7168 27.2155 44.2094 24.8061H42.0897C41.6615 26.1494 40.3982 27.0662 38.8352 27.0662C36.6512 27.0662 35.2379 25.4244 35.2379 23.4201C35.2379 21.4158 36.6512 19.7953 38.8352 19.7953C40.4624 19.7953 41.6615 20.7548 42.0897 21.9915H44.2094Z" fill="#F0C52E"/>
    <path d="M55.0836 19.6888H54.998C54.2058 18.6227 52.921 17.8764 51.2081 17.8551C48.0607 17.8124 45.8125 20.1365 45.8125 23.4202C45.8125 26.7252 48.1036 29.0494 51.1866 29.0068C52.9425 28.9853 54.2058 28.1965 54.998 27.0663H55.0836V28.7081H57.0962V18.1536H55.0836V19.6888ZM51.4866 27.0451C49.2596 27.0451 47.8466 25.4245 47.8466 23.4202C47.8466 21.4159 49.2596 19.7954 51.4866 19.7954C53.6491 19.7954 55.0622 21.4159 55.0622 23.4202C55.0622 25.4033 53.6491 27.0451 51.4866 27.0451Z" fill="#F0C52E"/>
    <path d="M68.654 19.7953H68.5684C67.7761 18.6652 66.4485 17.8763 64.757 17.855C61.6739 17.8123 59.3828 20.1365 59.3828 23.4415C59.3828 26.7251 61.631 29.0493 64.7784 29.0067C66.4485 28.9853 67.7761 28.239 68.5469 27.1729H68.654V28.708H70.6666V13.356H68.654V19.7953ZM65.0569 27.0662C62.8299 27.0662 61.4169 25.4458 61.4169 23.4415C61.4169 21.4372 62.8299 19.8166 65.0569 19.8166C67.2195 19.8166 68.6325 21.4585 68.6325 23.4415C68.6325 25.4458 67.2195 27.0662 65.0569 27.0662Z" fill="#F0C52E"/>
    <path d="M78.3298 17.855C75.0753 17.855 72.8484 20.3497 72.8484 23.4414C72.8484 26.4479 74.9468 29.0067 78.3725 29.0067C80.8562 29.0067 82.8476 27.6633 83.5542 25.4244H81.4343C80.9635 26.4267 79.8287 27.0662 78.4583 27.0662C76.5313 27.0662 75.1609 25.7869 75.011 24.1451H83.7683C84.0466 20.6269 81.8413 17.855 78.3298 17.855ZM78.2869 19.7953C79.9784 19.7953 81.2417 20.8401 81.5628 22.354H75.0539C75.3536 20.8614 76.6169 19.7953 78.2869 19.7953Z" fill="#F0C52E"/>
    <path d="M98.1985 17.8762C96.5713 17.8762 95.3295 18.6651 94.6443 19.9232H94.5799C93.9591 18.6865 92.8029 17.8762 91.2184 17.8762C89.8054 17.8762 88.7347 18.6225 88.0924 19.6673H88.0068V18.1534H86.0583V28.7079H88.0924V23.2921C88.0924 21.3091 89.1417 19.8592 90.7261 19.8165C92.2247 19.7739 93.1028 20.84 93.1028 22.4392V28.7079H95.1368V23.1215C95.1368 20.7547 96.5499 19.8165 97.7703 19.8165C99.2477 19.8165 100.125 20.84 100.125 22.4392V28.7079H102.16V22.226C102.16 19.6673 100.704 17.8762 98.1985 17.8762Z" fill="#F0C52E"/>
    <path d="M109.441 27.0237L105.801 18.1536H103.553L108.392 29.7104L108.371 29.753C108.028 30.6272 107.643 30.947 106.701 30.947H104.196V32.9726H106.701C108.542 32.9726 109.527 32.1411 110.212 30.3499L114.88 18.1536H112.803L109.441 27.0237Z" fill="#F0C52E"/>



</symbol>

</svg>













